<svg width="62" height="44" viewBox="0 0 62 44" fill="none" xmlns="http://www.w3.org/2000/svg">
<g id="dostavka">
<path id="Vector 33" d="M43.4181 6.58214V6.58214C43.4181 4.36593 41.6215 2.56934 39.4053 2.56934V2.56934M43.4181 6.58214V11.2285M43.4181 6.58214C43.4181 4.36593 41.6215 2.56934 39.4053 2.56934M43.4181 6.58214H51.529M43.4181 11.2285H54.3928M43.4181 11.2285V19.8877M54.3928 11.2285V11.2285C55.3208 11.2285 56.0981 10.4219 55.8286 9.53387V9.53387M54.3928 11.2285L56.7599 19.8877M54.3928 11.2285C55.3208 11.2285 56.0981 10.4219 55.8286 9.53387M56.7599 19.8877H43.4181M56.7599 19.8877C59.562 20.4244 60.7263 21.9462 61.1536 24.1117M43.4181 19.8877V21.9997V26.2237V35.0941M43.4181 35.0941H20.624C19 29 11 29 9.08613 35.0941H4.41285M43.4181 35.0941H45.2013C46 29.5 55 28 56.6861 35.0941M1.45605 32.1373V32.1373C1.45605 33.7703 2.77986 35.0941 4.41285 35.0941V35.0941M1.45605 32.1373V21.9997V8.56933M1.45605 32.1373C1.45605 33.7703 2.77986 35.0941 4.41285 35.0941M56.6861 35.0941V35.0941C59.0959 35.0941 61.065 33.1255 61.2051 30.7198V30.7198M56.6861 35.0941C59.0959 35.0941 61.065 33.1255 61.2051 30.7198M61.1536 24.1117V24.1117C58.6174 24.1117 55.8163 26.628 57.8768 28.1068C58.1134 28.2766 58.3861 28.4232 58.6966 28.5469C59.6478 28.9259 61.3254 28.5469 61.3254 28.5469M61.1536 24.1117C61.4057 25.3894 61.4013 26.8912 61.3254 28.5469M61.3254 28.5469C61.2992 29.1182 61.2645 29.7077 61.229 30.3127M1.45605 8.56933C1.45605 5.25563 4.14235 2.56934 7.45605 2.56934M1.45605 8.56933V8.56933C1.45605 5.25563 4.14235 2.56934 7.45605 2.56934V2.56934M7.45605 2.56934H39.4053M51.529 6.58214C52.1419 6.58214 52.7562 6.68181 53.3125 6.93911M51.529 6.58214V6.58214C52.1419 6.58214 52.7562 6.68181 53.3125 6.93911V6.93911M53.3125 6.93911C54.7443 7.60137 55.4665 8.34081 55.8286 9.53387M61.2051 30.7198C61.213 30.5833 61.221 30.4477 61.229 30.3127M61.2051 30.7198L61.229 30.3127" stroke="#007D14" stroke-linecap="round"/>
<path id="Ellipse 20" d="M20.3231 35.939C20.3231 38.9201 17.8582 41.3526 14.7978 41.3526C11.7374 41.3526 9.27246 38.9201 9.27246 35.939C9.27246 32.9579 11.7374 30.5254 14.7978 30.5254C17.8582 30.5254 20.3231 32.9579 20.3231 35.939Z" stroke="#007D14"/>
<path id="Ellipse 21" d="M56.4745 35.939C56.4745 38.9201 54.0096 41.3526 50.9491 41.3526C47.8887 41.3526 45.4238 38.9201 45.4238 35.939C45.4238 32.9579 47.8887 30.5254 50.9491 30.5254C54.0096 30.5254 56.4745 32.9579 56.4745 35.939Z" stroke="#007D14"/>
<path id="Ellipse 22" d="M16.4493 35.9391C16.4493 36.8207 15.7186 37.5511 14.7974 37.5511C13.8762 37.5511 13.1455 36.8207 13.1455 35.9391C13.1455 35.0576 13.8762 34.3271 14.7974 34.3271C15.7186 34.3271 16.4493 35.0576 16.4493 35.9391Z" stroke="#007D14"/>
<path id="Ellipse 23" d="M52.6016 35.9391C52.6016 36.8207 51.8709 37.5511 50.9498 37.5511C50.0286 37.5511 49.2979 36.8207 49.2979 35.9391C49.2979 35.0576 50.0286 34.3271 50.9498 34.3271C51.8709 34.3271 52.6016 35.0576 52.6016 35.9391Z" stroke="#007D14"/>
</g>
</svg>
