<svg width="76" height="76" viewBox="0 0 76 76" fill="none" xmlns="http://www.w3.org/2000/svg">
<g id="Flower" clip-path="url(#clip0_330_3136)">
<path id="Vector" d="M75.5148 36.2793L73.9325 33.695C72.8082 31.8553 71.239 30.3282 69.3695 29.2542C67.5 28.1803 65.3902 27.5941 63.2346 27.5497C64.7294 25.9942 65.8083 24.0873 66.3718 22.0049C66.9352 19.9225 66.9651 17.7317 66.4587 15.6347L65.7432 12.6882C65.6031 12.0974 65.3015 11.5572 64.8721 11.1278C64.4428 10.6985 63.9026 10.3969 63.3118 10.2568L60.3653 9.54724C58.2688 9.04002 56.0783 9.06897 53.9959 9.63139C51.9135 10.1938 50.0063 11.2716 48.4502 12.7654C48.4059 10.6098 47.8197 8.50002 46.7458 6.63048C45.6718 4.76094 44.1446 3.19175 42.3049 2.06747L39.7206 0.485129C39.2034 0.166359 38.6078 -0.00244141 38.0002 -0.00244141C37.3927 -0.00244141 36.7971 0.166359 36.2798 0.485129L33.6955 2.06747C31.8558 3.19175 30.3287 4.76094 29.2547 6.63048C28.1808 8.50002 27.5946 10.6098 27.5502 12.7654C25.9947 11.2706 24.0878 10.1917 22.0054 9.62821C19.923 9.06473 17.7322 9.03485 15.6351 9.5413L12.6887 10.2568C12.0979 10.3969 11.5577 10.6985 11.1283 11.1278C10.699 11.5572 10.3974 12.0974 10.2573 12.6882L9.54773 15.6347C9.04051 17.7312 9.06945 19.9217 9.63188 22.0041C10.1943 24.0864 11.2721 25.9937 12.7659 27.5497C10.6103 27.5941 8.50051 28.1803 6.63097 29.2542C4.76143 30.3282 3.19223 31.8553 2.06796 33.695L0.485617 36.2793C0.166847 36.7966 -0.00195313 37.3922 -0.00195312 37.9997C-0.00195313 38.6073 0.166847 39.2029 0.485617 39.7201L2.06796 42.3044C3.19223 44.1441 4.76143 45.6713 6.63097 46.7453C8.50051 47.8192 10.6103 48.4054 12.7659 48.4497C11.2711 50.0052 10.1922 51.9122 9.6287 53.9946C9.06522 56.077 9.03533 58.2678 9.54179 60.3648L10.2513 63.3113C10.3919 63.9028 10.6944 64.4436 11.1249 64.873C11.5553 65.3024 12.0968 65.6035 12.6887 65.7427L15.6351 66.4522C17.7317 66.9594 19.9222 66.9305 22.0045 66.3681C24.0869 65.8056 25.9941 64.7279 27.5502 63.2341C27.5946 65.3897 28.1808 67.4995 29.2547 69.369C30.3287 71.2385 31.8558 72.8077 33.6955 73.932L36.2798 75.5144C36.7969 75.8336 37.3926 76.0027 38.0002 76.0027C38.6079 76.0027 39.2036 75.8336 39.7206 75.5144L42.3049 73.932C44.1446 72.8077 45.6718 71.2385 46.7458 69.369C47.8197 67.4995 48.4059 65.3897 48.4502 63.2341C50.0078 64.7256 51.9149 65.8024 53.9966 66.3657C56.0783 66.9289 58.2681 66.9608 60.3653 66.4582L63.3118 65.7486C63.9026 65.6085 64.4428 65.3069 64.8721 64.8776C65.3015 64.4482 65.6031 63.908 65.7432 63.3172L66.4527 60.3708C66.961 58.2733 66.9326 56.0817 66.3701 53.9982C65.8077 51.9146 64.7293 50.0064 63.2346 48.4497C65.3902 48.4054 67.5 47.8192 69.3695 46.7453C71.239 45.6713 72.8082 44.1441 73.9325 42.3044L75.5148 39.7201C75.8336 39.2029 76.0024 38.6073 76.0024 37.9997C76.0024 37.3922 75.8336 36.7966 75.5148 36.2793ZM47.7288 17.5154C48.7824 15.3109 50.5594 13.534 52.7639 12.4806C54.9684 11.4273 57.4673 11.161 59.8443 11.7263L62.7893 12.421C62.9811 12.4667 63.1564 12.5647 63.2959 12.7041C63.4353 12.8435 63.5333 13.0189 63.579 13.2107L64.287 16.1572C64.8523 18.5341 64.5861 21.033 63.5327 23.2375C62.4793 25.442 60.7024 27.2191 58.498 28.2726L45.9594 34.2101C45.661 33.589 45.2914 33.0047 44.858 32.469C45.8674 31.0662 47.0549 29.9841 48.3745 29.2686C48.7961 29.0371 49.1805 28.8693 49.5531 28.7076C50.2701 28.3943 51.0123 28.0693 51.845 27.3612C52.8573 26.4824 53.6451 25.3745 54.1428 24.1297C54.7687 24.3495 55.4421 24.3975 56.0929 24.2687C56.7437 24.1399 57.348 23.839 57.843 23.3973C58.338 22.9556 58.7056 22.3893 58.9074 21.7574C59.1092 21.1254 59.1379 20.4509 58.9906 19.8041C58.8432 19.1573 58.5252 18.5618 58.0695 18.0796C57.6139 17.5974 57.0373 17.2462 56.3998 17.0626C55.7624 16.8789 55.0873 16.8694 54.445 17.0352C53.8026 17.201 53.2164 17.536 52.7475 18.0052C52.1387 18.6154 51.7613 19.4184 51.68 20.2765C51.5988 21.1345 51.8188 21.9941 52.3022 22.7077C51.8866 23.9516 51.2498 24.9461 50.4037 25.6661C49.8248 26.1618 49.3126 26.3845 48.6669 26.6665C48.2691 26.8402 47.8194 27.0361 47.3087 27.3152C45.7111 28.2139 44.3227 29.4419 43.2356 30.9178C42.7836 30.5819 42.3005 30.2901 41.7928 30.0465L47.7288 17.5154ZM54.3209 19.5935C54.5286 19.3861 54.7931 19.2448 55.081 19.1877C55.3689 19.1306 55.6673 19.1601 55.9384 19.2725C56.2095 19.3849 56.4413 19.5751 56.6043 19.8192C56.7673 20.0632 56.8543 20.3502 56.8543 20.6437C56.8543 20.9372 56.7673 21.2241 56.6043 21.4682C56.4413 21.7123 56.2095 21.9025 55.9384 22.0149C55.6673 22.1273 55.3689 22.1568 55.081 22.0997C54.7931 22.0425 54.5286 21.9013 54.3209 21.6939C54.1829 21.556 54.0734 21.3923 53.9987 21.2121C53.924 21.0319 53.8856 20.8388 53.8856 20.6437C53.8856 20.4486 53.924 20.2555 53.9987 20.0753C54.0734 19.8951 54.1829 19.7313 54.3209 19.5935ZM44.5834 37.9997C44.5832 39.0096 44.3507 40.0059 43.904 40.9116C43.4572 41.8173 42.8081 42.608 42.0068 43.2228C41.2056 43.8375 40.2737 44.2596 39.2832 44.4566C38.2927 44.6536 37.2702 44.6201 36.2947 44.3588C36.2703 44.3435 36.245 44.3296 36.219 44.3172C36.0966 44.2599 35.9648 44.2252 35.8301 44.2148C34.529 43.7596 33.4036 42.9075 32.6127 41.7786C31.8217 40.6497 31.405 39.301 31.4214 37.9227C31.4378 36.5443 31.8864 35.2059 32.7041 34.0962C33.5216 32.9864 34.667 32.1613 35.9785 31.7372C36.0337 31.7246 36.0878 31.7078 36.1403 31.6867C36.744 31.5076 37.3705 31.4166 38.0002 31.4165C39.7456 31.4185 41.4189 32.1127 42.6531 33.3469C43.8873 34.581 44.5815 36.2544 44.5834 37.9997ZM34.8578 3.96599L37.4421 2.38364C37.6099 2.28029 37.8031 2.22556 38.0002 2.22556C38.1973 2.22556 38.3905 2.28029 38.5584 2.38364L41.1427 3.96599C43.2222 5.24929 44.7996 7.20593 45.6125 9.51038C46.4254 11.8148 46.4247 14.3281 45.6106 16.6322C45.5806 16.7186 45.5612 16.8083 45.5527 16.8993L39.6568 29.3473C39.541 29.3251 39.4252 29.3072 39.3094 29.2894C39.5846 27.4783 39.4708 25.6292 38.9755 23.8655C38.8137 23.3074 38.6341 22.8502 38.4752 22.4465C38.2169 21.7889 38.0136 21.2708 37.9527 20.5168C37.8652 19.4094 38.1175 18.2575 38.7023 17.0834C39.5682 16.9157 40.3461 16.4451 40.8965 15.7559C41.4468 15.0667 41.7338 14.204 41.7058 13.3224C41.6778 12.4409 41.3367 11.5981 40.7437 10.9452C40.1507 10.2923 39.3446 9.87196 38.4698 9.75952C37.595 9.64708 36.7087 9.84989 35.9699 10.3316C35.2311 10.8133 34.688 11.5424 34.438 12.3882C34.188 13.2341 34.2474 14.1413 34.6056 14.9473C34.9638 15.7532 35.5973 16.4053 36.3927 16.7865C35.8651 18.0188 35.6392 19.3592 35.7336 20.6964C35.8212 21.7859 36.1166 22.54 36.403 23.2688C36.5515 23.6458 36.6999 24.0362 36.8394 24.4993C37.2595 25.9422 37.3352 27.5364 37.0666 29.2493C36.8231 29.2746 36.5812 29.3102 36.3437 29.3547L30.4477 16.9068C30.4393 16.8157 30.4199 16.726 30.3898 16.6396C29.5738 14.3346 29.5722 11.8196 30.3852 9.51356C31.1981 7.20751 32.7767 5.24961 34.8578 3.96599ZM36.5159 13.4333C36.5159 13.1397 36.6029 12.8528 36.766 12.6087C36.9291 12.3646 37.1609 12.1743 37.4322 12.0619C37.7034 11.9496 38.0019 11.9202 38.2898 11.9775C38.5778 12.0348 38.8422 12.1761 39.0498 12.3837C39.2574 12.5913 39.3988 12.8558 39.4561 13.1437C39.5134 13.4317 39.484 13.7301 39.3716 14.0014C39.2593 14.2726 39.069 14.5044 38.8249 14.6675C38.5808 14.8306 38.2938 14.9177 38.0002 14.9177C37.6065 14.9177 37.229 14.7613 36.9506 14.4829C36.6722 14.2046 36.5159 13.827 36.5159 13.4333ZM11.7134 16.1557L12.4215 13.2107C12.4672 13.0189 12.5652 12.8435 12.7046 12.7041C12.844 12.5647 13.0194 12.4667 13.2112 12.421L16.1576 11.7129C18.5346 11.1491 21.0329 11.416 23.2371 12.4692C25.4413 13.5224 27.2185 15.2985 28.2731 17.502L34.2106 30.0405C33.7029 30.2842 33.2198 30.576 32.7678 30.9118C31.6808 29.4372 30.293 28.2102 28.6962 27.3122C28.1855 27.0332 27.7358 26.8372 27.338 26.6636C26.6923 26.3815 26.1802 26.1589 25.6012 25.6631C24.7551 24.9432 24.1169 23.9486 23.7027 22.7062C24.1866 21.9925 24.4067 21.1326 24.3255 20.2742C24.2442 19.4158 23.8666 18.6125 23.2574 18.0022C22.7885 17.533 22.2023 17.198 21.56 17.0323C20.9176 16.8665 20.2426 16.8759 19.6051 17.0596C18.9676 17.2433 18.3911 17.5945 17.9354 18.0766C17.4798 18.5588 17.1617 19.1543 17.0143 19.8011C16.867 20.448 16.8957 21.1225 17.0975 21.7544C17.2993 22.3864 17.6669 22.9527 18.1619 23.3943C18.6569 23.836 19.2612 24.1369 19.912 24.2657C20.5628 24.3946 21.2362 24.3466 21.8621 24.1268C22.3598 25.3715 23.1476 26.4794 24.1599 27.3583C24.9926 28.0663 25.7348 28.3973 26.4518 28.7046C26.8244 28.8664 27.2088 29.0341 27.6304 29.2657C28.9455 29.9841 30.133 31.0662 31.1484 32.4704C30.715 33.0062 30.3454 33.5905 30.0469 34.2116L17.5084 28.2741C15.3023 27.2214 13.5237 25.4443 12.4691 23.2391C11.4146 21.0338 11.1479 18.5338 11.7134 16.1557ZM21.6795 21.6716C21.4719 21.8793 21.2075 22.0207 20.9195 22.078C20.6316 22.1353 20.3331 22.1059 20.0618 21.9936C19.7906 21.8813 19.5587 21.691 19.3956 21.4469C19.2324 21.2028 19.1454 20.9158 19.1454 20.6222C19.1454 20.3286 19.2324 20.0416 19.3956 19.7974C19.5587 19.5533 19.7906 19.3631 20.0618 19.2507C20.3331 19.1384 20.6316 19.109 20.9195 19.1663C21.2075 19.2237 21.4719 19.3651 21.6795 19.5727C21.9578 19.8511 22.1141 20.2286 22.1141 20.6222C22.1141 21.0158 21.9578 21.3933 21.6795 21.6716ZM3.96648 41.1422L2.38413 38.5579C2.28078 38.39 2.22605 38.1968 2.22605 37.9997C2.22605 37.8026 2.28078 37.6094 2.38413 37.4416L3.96648 34.8573C5.24959 32.7776 7.20622 31.2 9.51073 30.3871C11.8152 29.5742 14.3287 29.575 16.6327 30.3893C16.719 30.4194 16.8088 30.4388 16.8998 30.4472L29.3478 36.3432C29.3255 36.459 29.3077 36.5747 29.2899 36.6905C27.4787 36.4153 25.6297 36.5292 23.866 37.0245C23.3079 37.1863 22.8507 37.3659 22.4469 37.5247C21.7894 37.783 21.2713 37.9864 20.5173 38.0472C19.4099 38.1348 18.258 37.8825 17.0839 37.305C16.9164 36.439 16.446 35.661 15.7568 35.1104C15.0677 34.5598 14.205 34.2727 13.3234 34.3005C12.4418 34.3284 11.5989 34.6693 10.9459 35.2623C10.2928 35.8552 9.87236 36.6614 9.75984 37.5362C9.64732 38.4111 9.8501 39.2974 10.3318 40.0363C10.8136 40.7752 11.5427 41.3184 12.3886 41.5684C13.2345 41.8184 14.1418 41.7589 14.9478 41.4007C15.7538 41.0424 16.4059 40.4087 16.787 39.6133C17.8297 40.0559 18.9496 40.2885 20.0823 40.2976C20.2872 40.2976 20.492 40.2901 20.6969 40.2738C21.7864 40.1862 22.5405 39.8908 23.2693 39.6043C23.6463 39.4559 24.0367 39.3075 24.4998 39.1679C25.9426 38.7479 27.5369 38.6722 29.2498 38.9408C29.2751 39.1843 29.3107 39.4262 29.3552 39.6637L16.9073 45.5597C16.8162 45.5679 16.7264 45.5874 16.6401 45.6175C14.3343 46.4329 11.8187 46.4334 9.51256 45.619C7.20641 44.8047 5.24899 43.2246 3.96648 41.1422ZM14.9182 37.9997C14.9182 38.2933 14.8311 38.5803 14.668 38.8244C14.5049 39.0685 14.2731 39.2588 14.0019 39.3711C13.7306 39.4835 13.4322 39.5129 13.1442 39.4556C12.8563 39.3983 12.5918 39.2569 12.3842 39.0494C12.1766 38.8418 12.0352 38.5773 11.978 38.2893C11.9207 38.0014 11.9501 37.7029 12.0624 37.4317C12.1748 37.1605 12.365 36.9286 12.6091 36.7655C12.8533 36.6024 13.1402 36.5154 13.4338 36.5154C13.8275 36.5154 14.2051 36.6717 14.4834 36.9501C14.7618 37.2285 14.9182 37.6061 14.9182 37.9997ZM28.2776 58.4915C27.4069 60.3126 26.039 61.8503 24.3318 62.9272C22.6246 64.004 20.6476 64.5761 18.6291 64.5775C17.7985 64.576 16.9709 64.4764 16.1636 64.2806L13.2112 63.5785C13.0194 63.5328 12.844 63.4348 12.7046 63.2954C12.5652 63.1559 12.4672 62.9806 12.4215 62.7888L11.7134 59.8423C11.1482 57.4653 11.4144 54.9665 12.4678 52.7619C13.5211 50.5574 15.2981 48.7804 17.5025 47.7268L30.041 41.7893C30.2847 42.297 30.5765 42.7802 30.9123 43.2322C29.4377 44.3191 28.2107 45.707 27.3127 47.3038C27.0337 47.8144 26.8377 48.2642 26.6641 48.662C26.382 49.3077 26.1594 49.8198 25.6636 50.3987C24.9437 51.2448 23.9491 51.8831 22.7052 52.2972C21.9917 51.8138 21.1321 51.5938 20.274 51.6751C19.4159 51.7564 18.6129 52.1338 18.0027 52.7425C17.5335 53.2115 17.1985 53.7977 17.0327 54.44C16.867 55.0824 16.8764 55.7574 17.0601 56.3949C17.2438 57.0323 17.595 57.6089 18.0771 58.0646C18.5593 58.5202 19.1548 58.8383 19.8016 58.9856C20.4484 59.133 21.1229 59.1043 21.7549 58.9024C22.3869 58.7006 22.9532 58.3331 23.3948 57.8381C23.8365 57.3431 24.1374 56.7387 24.2662 56.088C24.3951 55.4372 24.3471 54.7638 24.1273 54.1379C25.372 53.6402 26.4799 52.8524 27.3587 51.84C28.0668 51.0073 28.3978 50.2651 28.7051 49.5482C28.8669 49.1756 29.0346 48.7911 29.2662 48.3696C29.9846 47.0544 31.0667 45.8669 32.4709 44.8516C33.0067 45.2849 33.591 45.6546 34.2121 45.953L28.2776 58.4915ZM21.6721 54.3279C21.8797 54.5354 22.0212 54.7999 22.0785 55.0879C22.1358 55.3758 22.1064 55.6743 21.9941 55.9456C21.8817 56.2168 21.6915 56.4487 21.4474 56.6118C21.2033 56.7749 20.9163 56.862 20.6226 56.862C20.329 56.862 20.042 56.7749 19.7979 56.6118C19.5538 56.4487 19.3636 56.2168 19.2512 55.9456C19.1389 55.6743 19.1095 55.3758 19.1668 55.0879C19.2241 54.7999 19.3656 54.5354 19.5732 54.3279C19.8516 54.0496 20.229 53.8933 20.6226 53.8933C21.0163 53.8933 21.3937 54.0496 21.6721 54.3279ZM41.1427 72.0335L38.5584 73.6158C38.3905 73.7192 38.1973 73.7739 38.0002 73.7739C37.8031 73.7739 37.6099 73.7192 37.4421 73.6158L34.8578 72.0335C32.7799 70.7505 31.2036 68.7951 30.3908 66.4923C29.578 64.1894 29.5776 61.6778 30.3898 59.3747C30.4199 59.2883 30.4393 59.1986 30.4477 59.1076L36.3437 46.6596C36.5812 46.7041 36.8231 46.7397 37.0666 46.765C37.3352 48.4794 37.2595 50.0736 36.8394 51.515C36.7044 51.9781 36.5426 52.3685 36.403 52.7455C36.1166 53.4743 35.8212 54.2299 35.7336 55.3179C35.6394 56.6546 35.8653 57.9944 36.3927 59.2263C35.5973 59.6075 34.9638 60.2596 34.6056 61.0656C34.2474 61.8716 34.188 62.7788 34.438 63.6246C34.688 64.4704 35.2311 65.1995 35.9699 65.6812C36.7087 66.1629 37.595 66.3658 38.4698 66.2533C39.3446 66.1409 40.1507 65.7205 40.7437 65.0676C41.3367 64.4147 41.6778 63.572 41.7058 62.6904C41.7338 61.8089 41.4468 60.9462 40.8965 60.257C40.3461 59.5678 39.5682 59.0971 38.7023 58.9294C38.1175 57.7553 37.8652 56.6034 37.9527 55.4961C38.0136 54.7361 38.2169 54.218 38.4752 53.5664C38.6341 53.1626 38.8137 52.7054 38.9755 52.1473C39.4708 50.3836 39.5846 48.5346 39.3094 46.7234C39.4252 46.7056 39.541 46.6878 39.6568 46.6655L45.5527 59.1135C45.5612 59.2046 45.5806 59.2943 45.6106 59.3807C46.4213 61.683 46.4202 64.1933 45.6074 66.4948C44.7947 68.7964 43.2193 70.7508 41.1427 72.0335ZM38.0002 61.0818C38.2938 61.0818 38.5808 61.1688 38.8249 61.3319C39.069 61.495 39.2593 61.7269 39.3716 61.9981C39.484 62.2693 39.5134 62.5678 39.4561 62.8557C39.3988 63.1437 39.2574 63.4082 39.0498 63.6158C38.8422 63.8233 38.5778 63.9647 38.2898 64.022C38.0019 64.0793 37.7034 64.0499 37.4322 63.9375C37.1609 63.8252 36.9291 63.6349 36.766 63.3908C36.6029 63.1467 36.5159 62.8597 36.5159 62.5661C36.5159 62.1725 36.6722 61.7949 36.9506 61.5165C37.229 61.2382 37.6065 61.0818 38.0002 61.0818ZM64.287 59.8438L63.579 62.7888C63.5332 62.9801 63.4353 63.155 63.2961 63.2942C63.157 63.4333 62.9821 63.5312 62.7908 63.577L59.8443 64.285C57.4673 64.8503 54.9684 64.5841 52.7639 63.5307C50.5594 62.4773 48.7824 60.7004 47.7288 58.496L41.7913 45.9575C42.4124 45.659 42.9967 45.2894 43.5325 44.8561C44.9337 45.8669 46.0159 47.0544 46.7313 48.374C46.9629 48.7956 47.1306 49.18 47.2924 49.5526C47.6056 50.2696 47.9307 51.0118 48.6387 51.8445C49.5176 52.8568 50.6255 53.6446 51.8702 54.1423C51.6504 54.7682 51.6024 55.4417 51.7312 56.0924C51.8601 56.7432 52.161 57.3475 52.6027 57.8425C53.0443 58.3375 53.6106 58.7051 54.2426 58.9069C54.8745 59.1087 55.549 59.1374 56.1959 58.9901C56.8427 58.8427 57.4382 58.5247 57.9204 58.069C58.4025 57.6134 58.7537 57.0368 58.9374 56.3993C59.1211 55.7619 59.1305 55.0868 58.9647 54.4445C58.799 53.8021 58.464 53.216 57.9948 52.747C57.3846 52.1382 56.5816 51.7608 55.7235 51.6795C54.8654 51.5983 54.0058 51.8183 53.2923 52.3017C52.0484 51.8861 51.0538 51.2493 50.3339 50.4032C49.8381 49.8243 49.6155 49.3122 49.3334 48.6665C49.1598 48.2686 48.9638 47.8189 48.6848 47.3083C47.7861 45.7106 46.5581 44.3222 45.0822 43.2351C45.4181 42.7831 45.7098 42.3 45.9535 41.7923L58.492 47.7298C60.6973 48.7823 62.4752 50.5587 63.5297 52.763C64.5842 54.9673 64.8515 57.4664 64.287 59.8438ZM54.3284 54.3279C54.5359 54.1202 54.8004 53.9788 55.0884 53.9215C55.3763 53.8642 55.6748 53.8936 55.9461 54.0059C56.2173 54.1182 56.4492 54.3085 56.6123 54.5526C56.7754 54.7967 56.8625 55.0837 56.8625 55.3773C56.8625 55.6709 56.7754 55.9579 56.6123 56.202C56.4492 56.4461 56.2173 56.6364 55.9461 56.7487C55.6748 56.8611 55.3763 56.8904 55.0884 56.8331C54.8004 56.7758 54.5359 56.6344 54.3284 56.4268C54.1895 56.2895 54.0793 56.1261 54.004 55.946C53.9288 55.7658 53.89 55.5725 53.89 55.3773C53.89 55.1821 53.9288 54.9888 54.004 54.8087C54.0793 54.6285 54.1895 54.4651 54.3284 54.3279ZM73.6252 38.5638L72.0429 41.1481C70.7588 43.2271 68.8016 44.8037 66.4968 45.6155C64.192 46.4273 61.6788 46.4254 59.3752 45.6101C59.2888 45.5801 59.1991 45.5607 59.108 45.5522L46.6601 39.6563C46.7046 39.4188 46.7402 39.1768 46.7655 38.9334C48.4799 38.6647 50.0756 38.7404 51.5155 39.1605C51.9786 39.2956 52.369 39.45 52.746 39.5969C53.4748 39.8834 54.2304 40.1788 55.3184 40.2664C55.5233 40.2827 55.7281 40.2901 55.933 40.2901C57.0657 40.2808 58.1855 40.0482 59.2283 39.6058C59.6094 40.4013 60.2615 41.035 61.0675 41.3932C61.8735 41.7515 62.7808 41.811 63.6267 41.561C64.4726 41.3109 65.2017 40.7678 65.6835 40.0289C66.1652 39.29 66.368 38.4037 66.2555 37.5288C66.1429 36.654 65.7225 35.8478 65.0695 35.2549C64.4164 34.6619 63.5735 34.3209 62.6919 34.2931C61.8103 34.2653 60.9476 34.5524 60.2585 35.103C59.5694 35.6536 59.0989 36.4316 58.9314 37.2976C57.7587 37.8825 56.6054 38.1348 55.498 38.0398C54.738 37.979 54.22 37.7756 53.5684 37.5173C53.1646 37.3585 52.7074 37.1789 52.1493 37.0171C50.3856 36.5218 48.5366 36.408 46.7254 36.6831C46.7076 36.5673 46.6898 36.4515 46.6675 36.3358L59.1155 30.4398C59.2065 30.4314 59.2963 30.4119 59.3827 30.3819C61.6866 29.5675 64.2001 29.5667 66.5046 30.3797C68.8091 31.1926 70.7657 32.7702 72.0488 34.8499L73.6312 37.4342C73.7338 37.6042 73.7868 37.7996 73.7841 37.9981C73.7815 38.1967 73.7234 38.3906 73.6163 38.5579L73.6252 38.5638ZM61.0823 37.9997C61.0823 37.7062 61.1693 37.4192 61.3324 37.1751C61.4955 36.931 61.7274 36.7407 61.9986 36.6284C62.2698 36.516 62.5683 36.4866 62.8562 36.5439C63.1442 36.6012 63.4087 36.7425 63.6163 36.9501C63.8238 37.1577 63.9652 37.4222 64.0225 37.7102C64.0798 37.9981 64.0504 38.2966 63.938 38.5678C63.8257 38.839 63.6354 39.0708 63.3913 39.234C63.1472 39.3971 62.8602 39.4841 62.5666 39.4841C62.173 39.4841 61.7954 39.3277 61.517 39.0494C61.2387 38.771 61.0823 38.3934 61.0823 37.9997ZM38.0002 36.8865C37.78 36.8865 37.5648 36.9517 37.3817 37.0741C37.1986 37.1964 37.056 37.3703 36.9717 37.5737C36.8874 37.7771 36.8654 38.001 36.9083 38.2169C36.9513 38.4329 37.0573 38.6313 37.213 38.7869C37.3687 38.9426 37.5671 39.0487 37.783 39.0916C37.999 39.1346 38.2228 39.1125 38.4263 39.0283C38.6297 38.944 38.8036 38.8013 38.9259 38.6182C39.0482 38.4352 39.1135 38.2199 39.1135 37.9997C39.1135 37.7045 38.9962 37.4213 38.7874 37.2125C38.5787 37.0037 38.2955 36.8865 38.0002 36.8865Z" fill="#9A17B0"/>
</g>
<defs>
<clipPath id="clip0_330_3136">
<rect width="76" height="76" fill="white"/>
</clipPath>
</defs>
</svg>
