<svg width="30" height="30" viewBox="0 0 30 30" fill="none" xmlns="http://www.w3.org/2000/svg">
<g id="tap-zone">
<path id="Line 6" d="M7 20L12.5 20" stroke="#282828" stroke-linecap="round"/>
<path id="Line 7" d="M9.7002 23L9.7002 17" stroke="#282828" stroke-linecap="round"/>
<path id="Union" fill-rule="evenodd" clip-rule="evenodd" d="M8.43201 11.4706H7.16528C6.84 11.4706 6.60132 11.7763 6.68021 12.0919L7.48403 15.3072C8.15691 14.9802 8.91247 14.7968 9.71086 14.7968C12.5283 14.7968 14.8123 17.0808 14.8123 19.8983C14.8123 20.6277 14.6592 21.3214 14.3834 21.949H22.0576C22.2987 21.949 22.5054 21.777 22.5493 21.54L24.3045 12.0617C24.3614 11.7543 24.1255 11.4706 23.8129 11.4706H22.2859H22.2798H8.43809H8.43201ZM13.8001 22.949H22.0576C22.7807 22.949 23.4009 22.4331 23.5325 21.7221L25.2878 12.2438C25.4586 11.3216 24.7507 10.4706 23.8129 10.4706H22.5126L18.2894 5.54375C18.1097 5.33409 17.794 5.30981 17.5844 5.48953C17.3747 5.66924 17.3504 5.98489 17.5301 6.19455L21.1955 10.4706H9.52242L13.1878 6.19455C13.3675 5.98489 13.3432 5.66924 13.1336 5.48953C12.9239 5.30981 12.6083 5.33409 12.4285 5.54375L8.20532 10.4706H7.16528C6.18943 10.4706 5.47339 11.3877 5.71007 12.3344L6.59174 15.8611C5.38582 16.7942 4.60938 18.2555 4.60938 19.8983C4.60938 22.7157 6.89339 24.9998 9.71086 24.9998C11.3844 24.9998 12.8698 24.1939 13.8001 22.949ZM13.1557 22.1252C13.1307 22.1546 13.109 22.1869 13.0913 22.2216C12.3517 23.2957 11.1135 23.9998 9.71086 23.9998C7.44567 23.9998 5.60938 22.1635 5.60938 19.8983C5.60938 18.4946 6.31453 17.2556 7.38993 16.5162C7.42318 16.499 7.45397 16.4783 7.48195 16.4547C8.12365 16.0385 8.88903 15.7968 9.71086 15.7968C11.976 15.7968 13.8123 17.6331 13.8123 19.8983C13.8123 20.7192 13.5711 21.4839 13.1557 22.1252Z" fill="#282828"/>
</g>
</svg>
